<svg width="125" height="109" viewBox="0 0 125 109" fill="none" xmlns="http://www.w3.org/2000/svg">
<path d="M114.516 10.4596C111.51 7.46062 107.942 5.08163 104.014 3.45852C100.087 1.83542 95.877 1 91.6257 1C87.3743 1 83.1647 1.83542 79.2371 3.45852C75.3096 5.08163 71.7412 7.46062 68.7358 10.4596L62.4984 16.6806L56.2611 10.4596C50.1903 4.40472 41.9566 1.00314 33.3712 1.00314C24.7858 1.00314 16.5521 4.40472 10.4813 10.4596C4.41053 16.5144 1 24.7266 1 33.2894C1 41.8523 4.41053 50.0644 10.4813 56.1193L16.7186 62.3403L62.4984 108L108.278 62.3403L114.516 56.1193C117.522 53.1217 119.908 49.5627 121.535 45.6455C123.162 41.7282 124 37.5296 124 33.2894C124 29.0493 123.162 24.8506 121.535 20.9334C119.908 17.0162 117.522 13.4571 114.516 10.4596Z" fill="#FCFCFC" stroke="black" stroke-linecap="round" stroke-linejoin="round"/>
<path d="M104.014 3.45852C107.942 5.08163 111.51 7.46061 114.516 10.4596C117.522 13.4571 119.908 17.0162 121.535 20.9334C123.162 24.8506 124 29.0493 124 33.2894C124 37.5296 123.162 41.7282 121.535 45.6455C119.908 49.5627 117.522 53.1217 114.516 56.1193H10.4813C4.41053 50.0644 1 41.8523 1 33.2894C1 24.7266 4.41053 16.5144 10.4813 10.4596C16.5521 4.40472 24.7858 1.00314 33.3712 1.00314C41.9566 1.00314 50.1903 4.40472 56.2611 10.4596L62.4984 16.6806L68.7358 10.4596C71.7412 7.46061 75.3096 5.08163 79.2371 3.45852C83.1647 1.83542 87.3743 1 91.6257 1C95.877 1 100.087 1.83542 104.014 3.45852Z" fill="#DC1616" stroke="black" stroke-linecap="round" stroke-linejoin="round"/>
</svg>
